# xmcd CD database file
#
# Track frame offsets:
#	150
#	18497
#	31730
#	45312
#	56527
#	69230
#	84910
#	101320
#	114522
#	126530
#	138212
#	153925
#	171432
#	184672
#
# Disc length: 2761 seconds
#
# Revision: 5
# Processed by: cddbd v1.5.1PL2 Copyright (c) Steve Scherf et al.
# Submitted via: CDex 1.60beta1-cs1
#
DISCID=a90ac70e
DTITLE=Charles Aznavour - l'essentiel
DYEAR=2000
DGENRE=Chanson
TTITLE0=La Bohême
TTITLE1=Heureux avec des riens
TTITLE2=Viens
TTITLE3=Toi
TTITLE4=De t'avoir aimée ...
TTITLE5=Je n'ai pas vu le temps passer
TTITLE6=Qui ?
TTITLE7=Eteins la lumière
TTITLE8=C'est ça
TTITLE9=Je hais les dimanches
TTITLE10=Il faut savoir
TTITLE11=Être
TTITLE12=Donne, donne-moi
TTITLE13=J'aime Paris au mois de mai (en duo avec Dianne Reeves)
EXTD=
EXTT0=
EXTT1=
EXTT2=
EXTT3=
EXTT4=
EXTT5=
EXTT6=
EXTT7=
EXTT8=
EXTT9=
EXTT10=
EXTT11=
EXTT12=
EXTT13=
PLAYORDER=
